<svg xmlns="http://www.w3.org/2000/svg" style="display: none;">
    <symbol id="icon-logo" viewBox="0 0 1024 1024">
        <g >
            <path d="M524.305 589.494h-16.742c-26.223 0-47.488 21.261-47.488 47.488v132.655c0 26.229 21.266 47.487 47.488 47.487h16.742c26.23 0 47.491-21.26 47.491-47.487V636.982c0-26.227-21.261-47.488-47.491-47.488z" fill="#E5594F"></path>
            <path d="M460.075 483.395a55.861 55.942 0 1 0 111.722 0 55.861 55.942 0 1 0-111.722 0Z" fill="#6277BA"></path>
            <path d="M541.948 73.917l-3.333-1.934c-25.734-14.915-58.642-6.063-73.501 19.775L13.509 876.966C-1.35 902.8 7.468 935.834 33.204 950.749l3.329 1.93c25.734 14.915 58.642 6.067 73.505-19.771L561.643 147.7c14.854-25.838 6.037-58.872-19.695-73.783z" fill="#F39A2B"></path>
            <path d="M1014.925 875.031L562.275 89.833c-14.894-25.834-47.881-34.686-73.672-19.771l-3.337 1.93c-25.795 14.915-34.635 47.95-19.741 73.784L918.174 930.97c14.894 25.838 47.877 34.69 73.672 19.775l3.338-1.936c25.795-14.909 34.634-47.944 19.741-73.778z" fill="#C45FA0"></path>
            <path d="M972.031 847.991H53.843c-26.229 0-47.488 21.26-47.488 47.492v16.903c0 26.229 21.261 47.487 47.488 47.487h918.188c26.224 0 47.487-21.26 47.487-47.487v-16.903c0.002-26.232-21.263-47.492-47.487-47.492z" fill="#4A5699"></path>
        </g>
    </symbol>

    <symbol id="icon-hamburger" viewBox="0 0 1024 1024">
        <g transform="rotate(-90, 512, 512)">
            <path d="M91.89 238.457c-29.899 0-54.133 24.239-54.133 54.134 0 29.899 24.234 54.137 54.133 54.137s54.138-24.238 54.138-54.137c0-29.896-24.239-54.134-54.138-54.134z" fill="#E5594F"></path>
            <path d="M91.89 462.463c-29.899 0-54.133 24.239-54.133 54.139 0 29.895 24.234 54.133 54.133 54.133s54.138-24.23854.138-54.133c0-29.9-24.239-54.139-54.138-54.139z" fill="#C45FA0"></path>
            <path d="M91.89 686.475c-29.899 0-54.133 24.237-54.133 54.133 0 29.899 24.234 54.138 54.133 54.138s54.138-24.238 54.138-54.138c0-29.896-24.239-54.133-54.138-54.133z" fill="#F39A2B"></path>
            <path d="M941.26 234.723H328.964c-28.867 0-52.263 23.4-52.263 52.268v3.734c0 28.868 23.396 52.269 52.263 52.269H941.26c28.869 0 52.269-23.401 52.269-52.269v-3.734c-0.001-28.868-23.4-52.268-52.269-52.268z" fill="#F0D043"></path>
            <path d="M941.26 682.74H328.964c-28.867 0-52.263 23.399-52.263 52.268v3.734c0 28.863 23.396 52.269 52.263 52.269H941.26c28.869 0 52.269-23.405 52.269-52.269v-3.734c-0.001-28.868-23.4-52.268-52.269-52.268z" fill="#4A5699"></path>
            <path d="M709.781 458.729H328.964c-28.867 0-52.263 23.4-52.263 52.269v3.734c0 28.873 23.396 52.269 52.263 52.269h380.817c28.866 0 52.271-23.396 52.271-52.269v-3.734c0.001-28.869-23.405-52.269-52.271-52.269z" fill="#E5594F"></path>
        </g>
    </symbol>

    <symbol id="icon-menu" viewBox="0 0 1024 1024"l>
        <g>
            <path d="M981.3 170.7H320c-23.6 0-42.7-19.1-42.7-42.7s19.1-42.7 42.7-42.7h661.3c23.6 0 42.7 19.1 42.7 42.7s-19.1 42.7-42.7 42.7zM981.3 938.7H320c-23.6 0-42.7-19.1-42.7-42.7s19.1-42.7 42.7-42.7h661.3c23.6 0 42.7 19.1 42.7 42.7s-19.1 42.7-42.7 42.7zM981.3 554.7H320c-23.6 0-42.7-19.1-42.7-42.7s19.1-42.7 42.7-42.7h661.3c23.6 0 42.7 19.1 42.7 42.7s-19.1 42.7-42.7 42.7z" fill="#3688FF"></path>
            <path d="M106.7 128m-64 0a64 64 0 1 0 128 0 64 64 0 1 0-128 0Z" fill="#5F6379"></path>
            <path d="M106.7 512m-64 0a64 64 0 1 0 128 0 64 64 0 1 0-128 0Z" fill="#5F6379"></path>
            <path d="M106.7 896m-64 0a64 64 0 1 0 128 0 64 64 0 1 0-128 0Z" fill="#5F6379"></path>
        </g>
    </symbol>

    <symbol id="icon-cloud" viewBox="0 0 1024 1024">
        <g>
            <path d="M 150 350 A  63 63 0 1 1 200 200 A  63 63 0 1 1 350 200 A  63 63 0 1 1 550 300 A  63 63 0 1 1 600 400 A  63 63 0 1 1 550 500 A  63 63 0 1 1 350 450 A  63 63 0 1 1 150 350 Z" stroke-linecap="round" stroke-linejoin="round"></path>
        </g>
    </symbol>

    <symbol id="icon-music-on" viewBox="0 0 1024 1024">
            <path d="M12 3v10.55c-.59-.34-1.27-.55-2-.55-2.21 0-4 1.79-4 4s1.79 4 4 4 4-1.79 4-4V7h4V3h-6zm-2 16c-1.1 0-2-.9-2-2s.9-2 2-2 2 .9 2 2-.9 2-2 2z"/>
    </symbol>
    <symbol id="icon-music-off" viewBox="0 0 1024 1024">
            <path d="M4.27 3L3 4.27l9 9v.48c-.59-.34-1.27-.55-2-.55-2.21 0-4 1.79-4 4s1.79 4 4 4 4-1.79 4-4V7.73L20.73 22l1.27-1.27L4.27 3zM10 19c-1.1 0-2-.9-2-2s.9-2 2-2 2 .9 2 2-.9 2-2 2z"/>
    </symbol>
</svg>